<svg width="12" height="12" viewBox="0 0 12 12" fill="none" xmlns="http://www.w3.org/2000/svg">
<path d="M6 12C5.18 12 4.405 11.8424 3.675 11.5272C2.945 11.2124 2.3076 10.7824 1.7628 10.2372C1.2176 9.6924 0.7876 9.055 0.4728 8.325C0.1576 7.595 0 6.82 0 6C0 5.17 0.1576 4.3926 0.4728 3.6678C0.7876 2.9426 1.2176 2.3076 1.7628 1.7628C2.3076 1.2176 2.945 0.7874 3.675 0.4722C4.405 0.1574 5.18 0 6 0C6.83 0 7.6074 0.1574 8.3322 0.4722C9.0574 0.7874 9.6924 1.2176 10.2372 1.7628C10.7824 2.3076 11.2124 2.9426 11.5272 3.6678C11.8424 4.3926 12 5.17 12 6V6.87C12 7.46 11.7976 7.9624 11.3928 8.3772C10.9876 8.7924 10.49 9 9.9 9C9.54 9 9.205 8.92 8.895 8.76C8.585 8.6 8.33 8.39 8.13 8.13C7.86 8.4 7.5426 8.6126 7.1778 8.7678C6.8126 8.9226 6.42 9 6 9C5.17 9 4.4626 8.7074 3.8778 8.1222C3.2926 7.5374 3 6.83 3 6C3 5.17 3.2926 4.4624 3.8778 3.8772C4.4626 3.2924 5.17 3 6 3C6.83 3 7.5376 3.2924 8.1228 3.8772C8.7076 4.4624 9 5.17 9 6V6.87C9 7.16 9.09 7.3874 9.27 7.5522C9.45 7.7174 9.66 7.8 9.9 7.8C10.14 7.8 10.35 7.7174 10.53 7.5522C10.71 7.3874 10.8 7.16 10.8 6.87V6C10.8 4.69 10.3274 3.5624 9.3822 2.6172C8.4374 1.6724 7.31 1.2 6 1.2C4.69 1.2 3.5624 1.6724 2.6172 2.6172C1.6724 3.5624 1.2 4.69 1.2 6C1.2 7.31 1.6724 8.4374 2.6172 9.3822C3.5624 10.3274 4.69 10.8 6 10.8H9V12H6ZM6 7.8C6.5 7.8 6.925 7.625 7.275 7.275C7.625 6.925 7.8 6.5 7.8 6C7.8 5.5 7.625 5.075 7.275 4.725C6.925 4.375 6.5 4.2 6 4.2C5.5 4.2 5.075 4.375 4.725 4.725C4.375 5.075 4.2 5.5 4.2 6C4.2 6.5 4.375 6.925 4.725 7.275C5.075 7.625 5.5 7.8 6 7.8Z" fill="#1C1B1F"/>
</svg>
