<svg width="27" height="27" viewBox="0 0 27 27" fill="none" xmlns="http://www.w3.org/2000/svg">
<mask id="mask0_94815_118" style="mask-type:alpha" maskUnits="userSpaceOnUse" x="0" y="0" width="27" height="27">
<rect width="27" height="27" fill="#D9D9D9"/>
</mask>
<g mask="url(#mask0_94815_118)">
<path d="M15.8625 12.4875H23.5125V7.08754H15.8625V12.4875ZM19.6875 11.1375L16.9031 9.19691V8.12816L19.6875 10.0688L22.4719 8.12816V9.19691L19.6875 11.1375ZM2.5875 22.8375C2.025 22.8375 1.54687 22.6407 1.15312 22.2469C0.759375 21.8532 0.5625 21.375 0.5625 20.8125V6.18754C0.5625 5.62504 0.759375 5.14691 1.15312 4.75316C1.54687 4.35941 2.025 4.16254 2.5875 4.16254H24.4125C24.975 4.16254 25.4531 4.35941 25.8469 4.75316C26.2406 5.14691 26.4375 5.62504 26.4375 6.18754V20.8125C26.4375 21.375 26.2406 21.8532 25.8469 22.2469C25.4531 22.6407 24.975 22.8375 24.4125 22.8375H2.5875ZM17.2688 21.15H24.4125C24.4875 21.15 24.5625 21.117 24.6375 21.051C24.7125 20.9858 24.75 20.9063 24.75 20.8125V6.18754C24.75 6.09379 24.7125 6.01391 24.6375 5.94791C24.5625 5.88266 24.4875 5.85004 24.4125 5.85004H2.5875C2.5125 5.85004 2.4375 5.88266 2.3625 5.94791C2.2875 6.01391 2.25 6.09379 2.25 6.18754V20.8125C2.25 20.9063 2.2875 20.9858 2.3625 21.051C2.4375 21.117 2.5125 21.15 2.5875 21.15H2.98125C3.76875 19.95 4.79063 18.9938 6.04688 18.2813C7.30312 17.5688 8.6625 17.2125 10.125 17.2125C11.5875 17.2125 12.9469 17.5688 14.2031 18.2813C15.4594 18.9938 16.4813 19.95 17.2688 21.15ZM10.125 15.8907C10.9875 15.8907 11.7188 15.5858 12.3187 14.976C12.9187 14.367 13.2188 13.6407 13.2188 12.7969C13.2188 11.9344 12.9187 11.2032 12.3187 10.6032C11.7188 10.0032 10.9875 9.70316 10.125 9.70316C9.2625 9.70316 8.53125 10.0032 7.93125 10.6032C7.33125 11.2032 7.03125 11.9344 7.03125 12.7969C7.03125 13.6407 7.33125 14.367 7.93125 14.976C8.53125 15.5858 9.2625 15.8907 10.125 15.8907ZM5.11875 21.15H15.1312C14.4937 20.4375 13.7392 19.8844 12.8678 19.4907C11.9955 19.0969 11.0813 18.9 10.125 18.9C9.16875 18.9 8.25937 19.0969 7.39687 19.4907C6.53437 19.8844 5.775 20.4375 5.11875 21.15ZM10.125 14.2032C9.73125 14.2032 9.39863 14.0625 9.12712 13.7813C8.85487 13.5 8.71875 13.1719 8.71875 12.7969C8.71875 12.4032 8.85487 12.0705 9.12712 11.799C9.39863 11.5268 9.73125 11.3907 10.125 11.3907C10.5188 11.3907 10.8514 11.5268 11.1229 11.799C11.3951 12.0705 11.5312 12.4032 11.5312 12.7969C11.5312 13.1719 11.3951 13.5 11.1229 13.7813C10.8514 14.0625 10.5188 14.2032 10.125 14.2032Z" fill="#1C1B1F"/>
</g>
</svg>
