<svg width="25" height="25" viewBox="0 0 25 27" fill="none" xmlns="http://www.w3.org/2000/svg">
<path d="M21.3012 26.321C21.1471 26.321 21.004 26.2937 20.8719 26.2391C20.7398 26.1836 20.6077 26.1008 20.4756 25.9908L13.8045 19.3197C13.6944 19.2096 13.6121 19.0828 13.5575 18.9392C13.502 18.7966 13.4742 18.6482 13.4742 18.4941C13.4742 18.3399 13.502 18.1911 13.5575 18.0476C13.6121 17.9049 13.6944 17.7785 13.8045 17.6684L16.3144 15.1585C16.4465 15.0264 16.5786 14.9384 16.7107 14.8943C16.8428 14.8503 16.9859 14.8283 17.14 14.8283C17.3162 14.8283 17.4703 14.8503 17.6024 14.8943C17.7345 14.9384 17.8666 15.0264 17.9987 15.1585L24.6367 21.8296C24.7688 21.9397 24.8626 22.066 24.9181 22.2087C24.9727 22.3523 25 22.5011 25 22.6552C25 22.8093 24.9727 22.9582 24.9181 23.1017C24.8626 23.2444 24.7688 23.3708 24.6367 23.4808L22.1598 25.9908C22.0277 26.1008 21.8956 26.1836 21.7635 26.2391C21.6314 26.2937 21.4773 26.321 21.3012 26.321ZM21.3012 24.0753L22.7213 22.6552L17.1731 17.107L15.786 18.5271L21.3012 24.0753ZM3.69881 26.354C3.52268 26.354 3.36328 26.321 3.22061 26.255C3.07706 26.1889 2.95024 26.1008 2.84016 25.9908L0.363276 23.5139C0.231175 23.3818 0.137825 23.2444 0.0832232 23.1017C0.027741 22.9582 0 22.8093 0 22.6552C0 22.5011 0.027741 22.3523 0.0832232 22.2087C0.137825 22.066 0.231175 21.9287 0.363276 21.7966L7.26552 14.8943H10.0396L11.0964 13.8375L5.58124 8.32232H3.69881L0.0330249 4.65654L3.30251 1.38705L6.9683 5.05284V6.93527L12.4835 12.4505L16.4135 8.5535L14.465 6.60502L16.1493 4.95376H12.7807L12.0542 4.22721L16.2814 0L16.9749 0.726552V4.09511L18.6592 2.41083L23.646 7.3646C23.9762 7.71686 24.2294 8.10744 24.4055 8.53633C24.5817 8.96609 24.6697 9.42316 24.6697 9.90753C24.6697 10.3479 24.5984 10.7605 24.4557 11.1453C24.3122 11.531 24.0973 11.889 23.8111 12.2193L21.07 9.4782L19.1876 11.3276L17.8005 9.94055L11.4267 16.3144V19.1215L4.52444 25.9908C4.39234 26.1008 4.26024 26.1889 4.12814 26.255C3.99604 26.321 3.85293 26.354 3.69881 26.354ZM3.69881 24.0423L9.7424 17.9987V16.5786H8.35535L2.27873 22.6552L3.69881 24.0423ZM3.69881 24.0423L2.27873 22.6552L3.00528 23.3487L3.69881 24.0423Z" fill="#1C1B1F"/>
</svg>
