<svg width="25" height="25" viewBox="0 0 25 25" fill="none" xmlns="http://www.w3.org/2000/svg">
<path d="M12.5 25C10.7895 25 9.17193 24.6711 7.64737 24.0132C6.12368 23.3553 4.79693 22.4614 3.66711 21.3316C2.53816 20.2026 1.64474 18.8763 0.986842 17.3526C0.328947 15.8281 0 14.2105 0 12.5C0 10.7675 0.328947 9.14474 0.986842 7.63158C1.64474 6.11842 2.53816 4.79693 3.66711 3.66711C4.79693 2.53816 6.12368 1.64474 7.64737 0.986842C9.17193 0.328947 10.7895 0 12.5 0C14.2325 0 15.8553 0.328947 17.3684 0.986842C18.8816 1.64474 20.2026 2.53816 21.3316 3.66711C22.4614 4.79693 23.3553 6.11842 24.0132 7.63158C24.6711 9.14474 25 10.7675 25 12.5C25 14.2105 24.6711 15.8281 24.0132 17.3526C23.3553 18.8763 22.4614 20.2026 21.3316 21.3316C20.2026 22.4614 18.8816 23.3553 17.3684 24.0132C15.8553 24.6711 14.2325 25 12.5 25ZM12.5 22.9934C13.1798 22.1162 13.7447 21.2228 14.1947 20.3132C14.6439 19.4026 15.0219 18.4101 15.3289 17.3355H9.67105C9.97807 18.432 10.3566 19.4351 10.8066 20.3447C11.2557 21.2553 11.8202 22.1382 12.5 22.9934ZM9.9671 22.6316C9.46272 21.9079 9.00789 21.0855 8.60263 20.1645C8.19649 19.2434 7.88377 18.3004 7.66447 17.3355H3.19079C3.89254 18.6952 4.82456 19.8412 5.98684 20.7737C7.14912 21.7053 8.47588 22.3246 9.9671 22.6316ZM15.0329 22.6316C16.5241 22.3246 17.8509 21.7053 19.0132 20.7737C20.1754 19.8412 21.1075 18.6952 21.8092 17.3355H17.3355C17.0724 18.3004 16.7434 19.2487 16.3487 20.1803C15.9539 21.1127 15.5154 21.9298 15.0329 22.6316ZM2.36842 15.3618H7.26974C7.18202 14.8794 7.11623 14.4022 7.07237 13.9303C7.02851 13.4592 7.00658 12.9825 7.00658 12.5C7.00658 12.0175 7.02851 11.5404 7.07237 11.0684C7.11623 10.5974 7.18202 10.1206 7.26974 9.63816H2.36842C2.23684 10.0768 2.13816 10.5373 2.07237 11.0197C2.00658 11.5022 1.97368 11.9956 1.97368 12.5C1.97368 13.0044 2.00658 13.4978 2.07237 13.9803C2.13816 14.4627 2.23684 14.9232 2.36842 15.3618ZM9.24342 15.3618H15.7566C15.8443 14.8794 15.9101 14.4079 15.9539 13.9474C15.9978 13.4868 16.0197 13.0044 16.0197 12.5C16.0197 11.9956 15.9978 11.5132 15.9539 11.0526C15.9101 10.5921 15.8443 10.1206 15.7566 9.63816H9.24342C9.1557 10.1206 9.08991 10.5921 9.04605 11.0526C9.00219 11.5132 8.98026 11.9956 8.98026 12.5C8.98026 13.0044 9.00219 13.4868 9.04605 13.9474C9.08991 14.4079 9.1557 14.8794 9.24342 15.3618ZM17.7303 15.3618H22.6316C22.7632 14.9232 22.8618 14.4627 22.9276 13.9803C22.9934 13.4978 23.0263 13.0044 23.0263 12.5C23.0263 11.9956 22.9934 11.5022 22.9276 11.0197C22.8618 10.5373 22.7632 10.0768 22.6316 9.63816H17.7303C17.818 10.1206 17.8838 10.5974 17.9276 11.0684C17.9715 11.5404 17.9934 12.0175 17.9934 12.5C17.9934 12.9825 17.9715 13.4592 17.9276 13.9303C17.8838 14.4022 17.818 14.8794 17.7303 15.3618ZM17.3355 7.66447H21.8092C21.1075 6.28289 20.1811 5.13684 19.0303 4.22632C17.8785 3.31667 16.5461 2.6864 15.0329 2.33553C15.5373 3.10307 15.9868 3.94167 16.3816 4.85132C16.7763 5.76184 17.0943 6.69956 17.3355 7.66447ZM9.67105 7.66447H15.3289C15.0219 6.56798 14.6329 5.55351 14.1618 4.62105C13.6899 3.68947 13.136 2.81798 12.5 2.00658C11.864 2.81798 11.3105 3.68947 10.8395 4.62105C10.3675 5.55351 9.97807 6.56798 9.67105 7.66447ZM3.19079 7.66447H7.66447C7.9057 6.69956 8.22368 5.76184 8.61842 4.85132C9.01316 3.94167 9.46272 3.10307 9.9671 2.33553C8.43202 2.6864 7.0943 3.31667 5.95395 4.22632C4.8136 5.13684 3.89254 6.28289 3.19079 7.66447Z" fill="#1C1B1F"/>
</svg>
