<svg width="25" height="25" viewBox="0 0 25 22" fill="none" xmlns="http://www.w3.org/2000/svg">
<path d="M2.36842 21.0331C1.71053 21.0331 1.15132 20.7877 0.69079 20.297C0.230263 19.8062 0 19.2103 0 18.5092V2.52398C0 1.82287 0.230263 1.22693 0.69079 0.73616C1.15132 0.245387 1.71053 0 2.36842 0H22.6316C23.2895 0 23.8487 0.245387 24.3092 0.73616C24.7697 1.22693 25 1.82287 25 2.52398V18.5092C25 19.2103 24.7697 19.8062 24.3092 20.297C23.8487 20.7877 23.2895 21.0331 22.6316 21.0331H2.36842ZM2.36842 18.9298H22.6316C22.7193 18.9298 22.807 18.8831 22.8947 18.7896C22.9825 18.6961 23.0263 18.6026 23.0263 18.5092V4.90773H1.97368V18.5092C1.97368 18.6026 2.01754 18.6961 2.10526 18.7896C2.19298 18.8831 2.2807 18.9298 2.36842 18.9298ZM6.57895 17.0368L5.19737 15.5645L8.58553 11.9188L5.16447 8.27303L6.57895 6.80071L11.3816 11.9188L6.57895 17.0368ZM12.8289 17.1771V15.0737H20.0658V17.1771H12.8289Z" fill="#1C1B1F"/>
</svg>
