<svg width="25" height="19" viewBox="0 0 25 19" fill="none" xmlns="http://www.w3.org/2000/svg">
<path d="M14.7826 8.04348H22.1739V2.82609H14.7826V8.04348ZM18.4783 6.73913L15.788 4.86413V3.83152L18.4783 5.70652L21.1685 3.83152V4.86413L18.4783 6.73913ZM1.95652 18.0435C1.41304 18.0435 0.951087 17.8533 0.570652 17.4728C0.190217 17.0924 0 16.6304 0 16.087V1.95652C0 1.41304 0.190217 0.951087 0.570652 0.570652C0.951087 0.190217 1.41304 0 1.95652 0H23.0435C23.587 0 24.0489 0.190217 24.4293 0.570652C24.8098 0.951087 25 1.41304 25 1.95652V16.087C25 16.6304 24.8098 17.0924 24.4293 17.4728C24.0489 17.8533 23.587 18.0435 23.0435 18.0435H1.95652ZM16.1413 16.413H23.0435C23.1159 16.413 23.1884 16.3812 23.2609 16.3174C23.3333 16.2543 23.3696 16.1775 23.3696 16.087V1.95652C23.3696 1.86594 23.3333 1.78877 23.2609 1.725C23.1884 1.66196 23.1159 1.63043 23.0435 1.63043H1.95652C1.88406 1.63043 1.81159 1.66196 1.73913 1.725C1.66667 1.78877 1.63043 1.86594 1.63043 1.95652V16.087C1.63043 16.1775 1.66667 16.2543 1.73913 16.3174C1.81159 16.3812 1.88406 16.413 1.95652 16.413H2.33696C3.09783 15.2536 4.08514 14.3297 5.29891 13.6413C6.51268 12.9529 7.82609 12.6087 9.23913 12.6087C10.6522 12.6087 11.9656 12.9529 13.1793 13.6413C14.3931 14.3297 15.3804 15.2536 16.1413 16.413ZM9.23913 11.3315C10.0725 11.3315 10.779 11.037 11.3587 10.4478C11.9384 9.85942 12.2283 9.15761 12.2283 8.34239C12.2283 7.50906 11.9384 6.80254 11.3587 6.22283C10.779 5.64312 10.0725 5.35326 9.23913 5.35326C8.4058 5.35326 7.69928 5.64312 7.11957 6.22283C6.53986 6.80254 6.25 7.50906 6.25 8.34239C6.25 9.15761 6.53986 9.85942 7.11957 10.4478C7.69928 11.037 8.4058 11.3315 9.23913 11.3315ZM4.40217 16.413H14.0761C13.4601 15.7246 12.7312 15.1902 11.8891 14.8098C11.0464 14.4293 10.163 14.2391 9.23913 14.2391C8.31522 14.2391 7.43659 14.4293 6.60326 14.8098C5.76993 15.1902 5.03623 15.7246 4.40217 16.413ZM9.23913 9.70109C8.8587 9.70109 8.53732 9.56522 8.275 9.29348C8.01196 9.02174 7.88043 8.70471 7.88043 8.34239C7.88043 7.96196 8.01196 7.64058 8.275 7.37826C8.53732 7.11522 8.8587 6.98369 9.23913 6.98369C9.61957 6.98369 9.94094 7.11522 10.2033 7.37826C10.4663 7.64058 10.5978 7.96196 10.5978 8.34239C10.5978 8.70471 10.4663 9.02174 10.2033 9.29348C9.94094 9.56522 9.61957 9.70109 9.23913 9.70109Z" fill="#1C1B1F"/>
</svg>
